name rise49.5252peak65.1548fall88.8305.mot
datacolumns 19
datarows 18
range 11.13662300000000 11.16495000000000
endheader
time	ground_force1_vx	ground_force1_vy	ground_force1_vz	ground_force1_px	ground_force1_py	ground_force1_pz	ground_force2_vx	ground_force2_vy	ground_force2_vz	ground_force2_px	ground_force2_py	ground_force2_pz	ground_torque1_x	ground_torque1_y	ground_torque1_z	ground_torque2_x	ground_torque2_y	ground_torque2_z	
11.13662300000000	60.38012300000000	733.88549100000000	52.62428800000000	0.39525400000000	0.00000000000000	0.09791500000000	-1.95050600000000	22.79219500000000	1.49998700000000	0.00000000000000	0.00000000000000	0.00000000000000	0.00000000000000	28.45165000000000	0.00000000000000	0.00000000000000	-0.01423300000000	0.00000000000000	
11.13828800000000	60.02383200000000	738.82515100000001	52.94561200000000	0.39410000000000	0.00000000000000	0.09792100000000	-1.28824700000000	16.87629000000000	1.16594200000000	0.00000000000000	0.00000000000000	0.00000000000000	0.00000000000000	28.62930700000000	0.00000000000000	0.00000000000000	0.02020400000000	0.00000000000000	
11.13995200000000	59.65524500000000	743.65570300000002	53.27438100000000	0.39298100000000	0.00000000000000	0.09792700000000	-0.74518600000000	11.66141800000000	0.85568900000000	0.00000000000000	0.00000000000000	0.00000000000000	0.00000000000000	28.81678200000000	0.00000000000000	0.00000000000000	0.04241500000000	0.00000000000000	
11.14162100000000	59.27476400000000	748.37108300000000	53.60996200000000	0.39189600000000	0.00000000000000	0.09793400000000	-0.31797100000000	7.21595000000000	0.57776900000000	0.00000000000000	0.00000000000000	0.00000000000000	0.00000000000000	29.01366400000000	0.00000000000000	0.00000000000000	0.05424200000000	0.00000000000000	
11.14328600000000	58.88275200000000	752.96528499999999	53.95160600000000	0.39084600000000	0.00000000000000	0.09794100000000	0.00038600000000	3.57428700000000	0.33852800000000	0.00000000000000	0.00000000000000	0.00000000000000	0.00000000000000	29.21945100000000	0.00000000000000	0.00000000000000	0.05766900000000	0.00000000000000	
11.14494800000000	58.47954000000000	757.43239000000005	54.29845200000000	0.38983100000000	0.00000000000000	0.09794800000000	0.00000000000000	0.00000000000000	0.00000000000000	0.00000000000000	0.00000000000000	0.00000000000000	0.00000000000000	29.43354900000000	0.00000000000000	0.00000000000000	0.00000000000000	0.00000000000000	
11.14661900000000	58.06542500000000	761.76658899999995	54.64953800000000	0.38885000000000	0.00000000000000	0.09795500000000	0.00000000000000	0.00000000000000	0.00000000000000	0.00000000000000	0.00000000000000	0.00000000000000	0.00000000000000	29.65528500000000	0.00000000000000	0.00000000000000	0.00000000000000	0.00000000000000	
11.14828800000000	57.64067100000000	765.96220800000003	55.00380600000000	0.38790400000000	0.00000000000000	0.09796200000000	0.00000000000000	0.00000000000000	0.00000000000000	0.00000000000000	0.00000000000000	0.00000000000000	0.00000000000000	29.88390800000000	0.00000000000000	0.00000000000000	0.00000000000000	0.00000000000000	
11.14995100000000	57.20551600000000	770.01373100000001	55.36011200000000	0.38699200000000	0.00000000000000	0.09796800000000	0.00000000000000	0.00000000000000	0.00000000000000	0.00000000000000	0.00000000000000	0.00000000000000	0.00000000000000	30.11859600000000	0.00000000000000	0.00000000000000	0.00000000000000	0.00000000000000	
11.15161900000000	56.76017200000000	773.91582800000003	55.71723800000000	0.38611200000000	0.00000000000000	0.09797500000000	0.00000000000000	0.00000000000000	0.00000000000000	0.00000000000000	0.00000000000000	0.00000000000000	0.00000000000000	30.35846500000000	0.00000000000000	0.00000000000000	0.00000000000000	0.00000000000000	
11.15328600000000	56.30482800000000	777.66337099999998	56.07390000000000	0.38526500000000	0.00000000000000	0.09798100000000	0.00000000000000	0.00000000000000	0.00000000000000	0.00000000000000	0.00000000000000	0.00000000000000	0.00000000000000	30.60257400000000	0.00000000000000	0.00000000000000	0.00000000000000	0.00000000000000	
11.15495400000000	55.83965400000000	781.25146400000006	56.42875400000000	0.38445000000000	0.00000000000000	0.09798600000000	0.00000000000000	0.00000000000000	0.00000000000000	0.00000000000000	0.00000000000000	0.00000000000000	0.00000000000000	30.84993000000000	0.00000000000000	0.00000000000000	0.00000000000000	0.00000000000000	
11.15661600000000	55.36480100000000	784.67545900000005	56.78041500000000	0.38366500000000	0.00000000000000	0.09799100000000	0.00000000000000	0.00000000000000	0.00000000000000	0.00000000000000	0.00000000000000	0.00000000000000	0.00000000000000	31.09950100000000	0.00000000000000	0.00000000000000	0.00000000000000	0.00000000000000	
11.15828900000000	54.88040900000000	787.93097699999998	57.12746000000000	0.38291000000000	0.00000000000000	0.09799500000000	0.00000000000000	0.00000000000000	0.00000000000000	0.00000000000000	0.00000000000000	0.00000000000000	0.00000000000000	31.35021700000000	0.00000000000000	0.00000000000000	0.00000000000000	0.00000000000000	
11.15995200000000	54.38660300000000	791.01392999999996	57.46844100000000	0.38218300000000	0.00000000000000	0.09799800000000	0.00000000000000	0.00000000000000	0.00000000000000	0.00000000000000	0.00000000000000	0.00000000000000	0.00000000000000	31.60098100000000	0.00000000000000	0.00000000000000	0.00000000000000	0.00000000000000	
11.16162100000000	53.88350400000000	793.92053499999997	57.80189800000000	0.38148300000000	0.00000000000000	0.09800000000000	0.00000000000000	0.00000000000000	0.00000000000000	0.00000000000000	0.00000000000000	0.00000000000000	0.00000000000000	31.85067500000000	0.00000000000000	0.00000000000000	0.00000000000000	0.00000000000000	
11.16328700000000	53.37122700000000	796.64733500000000	58.12636400000000	0.38080800000000	0.00000000000000	0.09800200000000	0.00000000000000	0.00000000000000	0.00000000000000	0.00000000000000	0.00000000000000	0.00000000000000	0.00000000000000	32.09816800000000	0.00000000000000	0.00000000000000	0.00000000000000	0.00000000000000	
11.16495000000000	52.84988500000000	799.19121299999995	58.44038100000000	0.38015800000000	0.00000000000000	0.09800200000000	0.00000000000000	0.00000000000000	0.00000000000000	0.00000000000000	0.00000000000000	0.00000000000000	0.00000000000000	32.34232300000000	0.00000000000000	0.00000000000000	0.00000000000000	0.00000000000000	
